# xmcd CD database file generated by Grip 3.2.0
# 
# Track frame offsets:
#       150
#       16314
#       37196
#       48703
#       54948
#       74968
#       99584
#       113464
#       131912
#       144937
#       171846
# 
# Disc length: 2532 seconds
# 
# Revision: 1
# Processed by: cddbd v1.5.2PL0 Copyright (c) Steve Scherf et al.
# Submitted via: Grip 3.2.0
# 
DISCID=a009e20b
DTITLE=つボイノリオ - ジョーズ　-ヘ タ-
DYEAR=2006
DGENRE=Other
TTITLE0=オー・ジョーズ（つボイノリオのテーマ）
TTITLE1=金太の大冒険
TTITLE2=女学生
TTITLE3=ヤイ・ヤイ・オウ・オウ・イエ・イエ　ウエスタ
TTITLE3=ン・ハピネス・イッツ・オール・ライト
TTITLE4=怪傑黒頭巾
TTITLE5=極付けお万の方
TTITLE6=一宮の夜
TTITLE7=男の子守唄
TTITLE8=ワッパ人生
TTITLE9=吉田松陰物語
TTITLE10=気楽な時代も過ぎました
EXTD=YEAR: 2006
EXTT0=
EXTT1=
EXTT2=
EXTT3=
EXTT4=
EXTT5=
EXTT6=
EXTT7=
EXTT8=
EXTT9=
EXTT10=
PLAYORDER=
